<svg width="182" height="27" viewBox="0 0 182 27" fill="none" xmlns="http://www.w3.org/2000/svg">
<path d="M20.9785 12.623V22.7656C20.5801 23.2461 19.9648 23.7676 19.1328 24.3301C18.3008 24.8809 17.2285 25.3555 15.916 25.7539C14.6035 26.1523 13.0156 26.3516 11.1523 26.3516C9.5 26.3516 7.99414 26.082 6.63477 25.543C5.27539 24.9922 4.10352 24.1895 3.11914 23.1348C2.14648 22.0801 1.39648 20.791 0.869141 19.2676C0.341797 17.7324 0.078125 15.9805 0.078125 14.0117V12.4121C0.078125 10.4434 0.330078 8.69141 0.833984 7.15625C1.34961 5.62109 2.08203 4.32617 3.03125 3.27148C3.98047 2.2168 5.11133 1.41406 6.42383 0.863281C7.73633 0.3125 9.19531 0.0371094 10.8008 0.0371094C13.0273 0.0371094 14.8555 0.400391 16.2852 1.12695C17.7148 1.8418 18.8047 2.83789 19.5547 4.11523C20.3164 5.38086 20.7852 6.83398 20.9609 8.47461H15.8457C15.7168 7.60742 15.4707 6.85156 15.1074 6.20703C14.7441 5.5625 14.2227 5.05859 13.543 4.69531C12.875 4.33203 12.0078 4.15039 10.9414 4.15039C10.0625 4.15039 9.27734 4.33203 8.58594 4.69531C7.90625 5.04688 7.33203 5.56836 6.86328 6.25977C6.39453 6.95117 6.03711 7.80664 5.79102 8.82617C5.54492 9.8457 5.42188 11.0293 5.42188 12.377V14.0117C5.42188 15.3477 5.55078 16.5312 5.80859 17.5625C6.06641 18.582 6.44727 19.4434 6.95117 20.1465C7.4668 20.8379 8.09961 21.3594 8.84961 21.7109C9.59961 22.0625 10.4727 22.2383 11.4688 22.2383C12.3008 22.2383 12.9922 22.168 13.543 22.0273C14.1055 21.8867 14.5566 21.7168 14.8965 21.5176C15.248 21.3066 15.5176 21.1074 15.7051 20.9199V16.3848H10.8887V12.623H20.9785ZM35.1992 16.877H28.6777V12.7637H35.1992C36.207 12.7637 37.0273 12.5996 37.6602 12.2715C38.293 11.9316 38.7559 11.4629 39.0488 10.8652C39.3418 10.2676 39.4883 9.59375 39.4883 8.84375C39.4883 8.08203 39.3418 7.37305 39.0488 6.7168C38.7559 6.06055 38.293 5.5332 37.6602 5.13477C37.0273 4.73633 36.207 4.53711 35.1992 4.53711H30.5059V26H25.2324V0.40625H35.1992C37.2031 0.40625 38.9199 0.769531 40.3496 1.49609C41.791 2.21094 42.8926 3.20117 43.6543 4.4668C44.416 5.73242 44.7969 7.17969 44.7969 8.80859C44.7969 10.4609 44.416 11.8906 43.6543 13.0977C42.8926 14.3047 41.791 15.2363 40.3496 15.8926C38.9199 16.5488 37.2031 16.877 35.1992 16.877ZM61.7598 19.3027C61.7598 18.8457 61.6895 18.4355 61.5488 18.0723C61.4199 17.6973 61.1738 17.3574 60.8105 17.0527C60.4473 16.7363 59.9375 16.4258 59.2812 16.1211C58.625 15.8164 57.7754 15.5 56.7324 15.1719C55.5723 14.7969 54.4707 14.375 53.4277 13.9062C52.3965 13.4375 51.4824 12.8926 50.6855 12.2715C49.9004 11.6387 49.2793 10.9062 48.8223 10.0742C48.377 9.24219 48.1543 8.27539 48.1543 7.17383C48.1543 6.10742 48.3887 5.14062 48.8574 4.27344C49.3262 3.39453 49.9824 2.64453 50.8262 2.02344C51.6699 1.39062 52.666 0.904297 53.8145 0.564453C54.9746 0.224609 56.2461 0.0546875 57.6289 0.0546875C59.5156 0.0546875 61.1621 0.394531 62.5684 1.07422C63.9746 1.75391 65.0645 2.68555 65.8379 3.86914C66.623 5.05273 67.0156 6.40625 67.0156 7.92969H61.7773C61.7773 7.17969 61.6191 6.52344 61.3027 5.96094C60.998 5.38672 60.5293 4.93555 59.8965 4.60742C59.2754 4.2793 58.4902 4.11523 57.541 4.11523C56.627 4.11523 55.8652 4.25586 55.2559 4.53711C54.6465 4.80664 54.1895 5.17578 53.8848 5.64453C53.5801 6.10156 53.4277 6.61719 53.4277 7.19141C53.4277 7.625 53.5332 8.01758 53.7441 8.36914C53.9668 8.7207 54.2949 9.04883 54.7285 9.35352C55.1621 9.6582 55.6953 9.94531 56.3281 10.2148C56.9609 10.4844 57.6934 10.748 58.5254 11.0059C59.9199 11.4277 61.1445 11.9023 62.1992 12.4297C63.2656 12.957 64.1562 13.5488 64.8711 14.2051C65.5859 14.8613 66.125 15.6055 66.4883 16.4375C66.8516 17.2695 67.0332 18.2129 67.0332 19.2676C67.0332 20.3809 66.8164 21.377 66.3828 22.2559C65.9492 23.1348 65.3223 23.8789 64.502 24.4883C63.6816 25.0977 62.7031 25.5605 61.5664 25.877C60.4297 26.1934 59.1582 26.3516 57.752 26.3516C56.4863 26.3516 55.2383 26.1875 54.0078 25.8594C52.7773 25.5195 51.6582 25.0098 50.6504 24.3301C49.6543 23.6504 48.8574 22.7832 48.2598 21.7285C47.6621 20.6738 47.3633 19.4258 47.3633 17.9844H52.6543C52.6543 18.7812 52.7773 19.4551 53.0234 20.0059C53.2695 20.5566 53.6152 21.002 54.0605 21.3418C54.5176 21.6816 55.0566 21.9277 55.6777 22.0801C56.3105 22.2324 57.002 22.3086 57.752 22.3086C58.666 22.3086 59.416 22.1797 60.002 21.9219C60.5996 21.6641 61.0391 21.3066 61.3203 20.8496C61.6133 20.3926 61.7598 19.877 61.7598 19.3027Z" fill="#835AFD"/>
<path d="M80.5859 16.877H74.0645V12.7637H80.5859C81.5938 12.7637 82.4141 12.5996 83.0469 12.2715C83.6797 11.9316 84.1426 11.4629 84.4355 10.8652C84.7285 10.2676 84.875 9.59375 84.875 8.84375C84.875 8.08203 84.7285 7.37305 84.4355 6.7168C84.1426 6.06055 83.6797 5.5332 83.0469 5.13477C82.4141 4.73633 81.5938 4.53711 80.5859 4.53711H75.8926V26H70.6191V0.40625H80.5859C82.5898 0.40625 84.3066 0.769531 85.7363 1.49609C87.1777 2.21094 88.2793 3.20117 89.041 4.4668C89.8027 5.73242 90.1836 7.17969 90.1836 8.80859C90.1836 10.4609 89.8027 11.8906 89.041 13.0977C88.2793 14.3047 87.1777 15.2363 85.7363 15.8926C84.3066 16.5488 82.5898 16.877 80.5859 16.877ZM114.846 12.6055V13.8184C114.846 15.7637 114.582 17.5098 114.055 19.0566C113.527 20.6035 112.783 21.9219 111.822 23.0117C110.861 24.0898 109.713 24.916 108.377 25.4902C107.053 26.0645 105.582 26.3516 103.965 26.3516C102.359 26.3516 100.889 26.0645 99.5527 25.4902C98.2285 24.916 97.0801 24.0898 96.1074 23.0117C95.1348 21.9219 94.3789 20.6035 93.8398 19.0566C93.3125 17.5098 93.0488 15.7637 93.0488 13.8184V12.6055C93.0488 10.6484 93.3125 8.90234 93.8398 7.36719C94.3672 5.82031 95.1113 4.50195 96.0723 3.41211C97.0449 2.32227 98.1934 1.49023 99.5176 0.916016C100.854 0.341797 102.324 0.0546875 103.93 0.0546875C105.547 0.0546875 107.018 0.341797 108.342 0.916016C109.678 1.49023 110.826 2.32227 111.787 3.41211C112.76 4.50195 113.51 5.82031 114.037 7.36719C114.576 8.90234 114.846 10.6484 114.846 12.6055ZM109.52 13.8184V12.5703C109.52 11.2109 109.396 10.0156 109.15 8.98438C108.904 7.95312 108.541 7.08594 108.061 6.38281C107.58 5.67969 106.994 5.15234 106.303 4.80078C105.611 4.4375 104.82 4.25586 103.93 4.25586C103.039 4.25586 102.248 4.4375 101.557 4.80078C100.877 5.15234 100.297 5.67969 99.8164 6.38281C99.3477 7.08594 98.9902 7.95312 98.7441 8.98438C98.498 10.0156 98.375 11.2109 98.375 12.5703V13.8184C98.375 15.166 98.498 16.3613 98.7441 17.4043C98.9902 18.4355 99.3535 19.3086 99.834 20.0234C100.314 20.7266 100.9 21.2598 101.592 21.623C102.283 21.9863 103.074 22.168 103.965 22.168C104.855 22.168 105.646 21.9863 106.338 21.623C107.029 21.2598 107.609 20.7266 108.078 20.0234C108.547 19.3086 108.904 18.4355 109.15 17.4043C109.396 16.3613 109.52 15.166 109.52 13.8184ZM118.643 0.40625H128.188C130.145 0.40625 131.826 0.699219 133.232 1.28516C134.65 1.87109 135.74 2.73828 136.502 3.88672C137.264 5.03516 137.645 6.44727 137.645 8.12305C137.645 9.49414 137.41 10.6719 136.941 11.6562C136.484 12.6289 135.834 13.4434 134.99 14.0996C134.158 14.7441 133.18 15.2598 132.055 15.6465L130.385 16.5254H122.088L122.053 12.4121H128.223C129.148 12.4121 129.916 12.248 130.525 11.9199C131.135 11.5918 131.592 11.1348 131.896 10.5488C132.213 9.96289 132.371 9.2832 132.371 8.50977C132.371 7.68945 132.219 6.98047 131.914 6.38281C131.609 5.78516 131.146 5.32812 130.525 5.01172C129.904 4.69531 129.125 4.53711 128.188 4.53711H123.916V26H118.643V0.40625ZM132.951 26L127.115 14.5918L132.688 14.5566L138.594 25.7539V26H132.951ZM152.094 0.40625V26H146.838V0.40625H152.094ZM159.969 0.40625V4.53711H139.086V0.40625H159.969ZM176.018 19.3027C176.018 18.8457 175.947 18.4355 175.807 18.0723C175.678 17.6973 175.432 17.3574 175.068 17.0527C174.705 16.7363 174.195 16.4258 173.539 16.1211C172.883 15.8164 172.033 15.5 170.99 15.1719C169.83 14.7969 168.729 14.375 167.686 13.9062C166.654 13.4375 165.74 12.8926 164.943 12.2715C164.158 11.6387 163.537 10.9062 163.08 10.0742C162.635 9.24219 162.412 8.27539 162.412 7.17383C162.412 6.10742 162.646 5.14062 163.115 4.27344C163.584 3.39453 164.24 2.64453 165.084 2.02344C165.928 1.39062 166.924 0.904297 168.072 0.564453C169.232 0.224609 170.504 0.0546875 171.887 0.0546875C173.773 0.0546875 175.42 0.394531 176.826 1.07422C178.232 1.75391 179.322 2.68555 180.096 3.86914C180.881 5.05273 181.273 6.40625 181.273 7.92969H176.035C176.035 7.17969 175.877 6.52344 175.561 5.96094C175.256 5.38672 174.787 4.93555 174.154 4.60742C173.533 4.2793 172.748 4.11523 171.799 4.11523C170.885 4.11523 170.123 4.25586 169.514 4.53711C168.904 4.80664 168.447 5.17578 168.143 5.64453C167.838 6.10156 167.686 6.61719 167.686 7.19141C167.686 7.625 167.791 8.01758 168.002 8.36914C168.225 8.7207 168.553 9.04883 168.986 9.35352C169.42 9.6582 169.953 9.94531 170.586 10.2148C171.219 10.4844 171.951 10.748 172.783 11.0059C174.178 11.4277 175.402 11.9023 176.457 12.4297C177.523 12.957 178.414 13.5488 179.129 14.2051C179.844 14.8613 180.383 15.6055 180.746 16.4375C181.109 17.2695 181.291 18.2129 181.291 19.2676C181.291 20.3809 181.074 21.377 180.641 22.2559C180.207 23.1348 179.58 23.8789 178.76 24.4883C177.939 25.0977 176.961 25.5605 175.824 25.877C174.688 26.1934 173.416 26.3516 172.01 26.3516C170.744 26.3516 169.496 26.1875 168.266 25.8594C167.035 25.5195 165.916 25.0098 164.908 24.3301C163.912 23.6504 163.115 22.7832 162.518 21.7285C161.92 20.6738 161.621 19.4258 161.621 17.9844H166.912C166.912 18.7812 167.035 19.4551 167.281 20.0059C167.527 20.5566 167.873 21.002 168.318 21.3418C168.775 21.6816 169.314 21.9277 169.936 22.0801C170.568 22.2324 171.26 22.3086 172.01 22.3086C172.924 22.3086 173.674 22.1797 174.26 21.9219C174.857 21.6641 175.297 21.3066 175.578 20.8496C175.871 20.3926 176.018 19.877 176.018 19.3027Z" fill="white"/>
</svg>
