<?xml version="1.0" standalone="no"?>
<!DOCTYPE svg PUBLIC "-//W3C//DTD SVG 20010904//EN"
 "http://www.w3.org/TR/2001/REC-SVG-20010904/DTD/svg10.dtd">
<svg version="1.0" xmlns="http://www.w3.org/2000/svg"
 width="1918.000000pt" height="317.000000pt" viewBox="0 0 1918.000000 317.000000"
 preserveAspectRatio="xMidYMid meet">

<g transform="translate(0.000000,317.000000) scale(0.100000,-0.100000)"
fill="#000000" stroke="none">
<path d="M15230 3152 c0 -4 -25 -165 -55 -357 -30 -193 -55 -353 -55 -357 0
-5 149 -8 330 -8 265 0 330 -3 330 -13 0 -17 -348 -2334 -355 -2365 l-5 -22
400 0 c259 0 400 4 400 10 0 13 349 2339 355 2368 l5 22 318 0 318 0 53 343
c29 188 55 352 58 365 l5 22 -1051 0 c-578 0 -1051 -4 -1051 -8z"/>
<path d="M7565 3119 c-3 -19 -68 -450 -145 -959 -77 -509 -141 -932 -143 -940
-2 -8 -7 -1 -11 15 -24 99 -50 168 -83 225 -44 74 -152 193 -234 256 -68 52
-292 188 -357 215 -127 55 -304 186 -337 250 -37 70 -9 157 74 231 80 72 197
92 325 54 79 -23 222 -102 331 -183 48 -35 88 -63 89 -61 43 62 326 573 322
583 -9 23 -206 154 -311 206 -298 147 -735 169 -1041 50 -155 -60 -327 -193
-430 -334 -76 -103 -141 -249 -160 -362 -11 -67 -21 -70 -27 -9 -13 116 -57
247 -118 352 -42 69 -194 226 -269 275 -105 70 -293 119 -520 137 -81 7 -339
10 -645 8 l-509 -3 -131 -857 c-71 -471 -131 -855 -133 -854 -1 2 2 65 9 140
6 76 9 139 8 140 -2 2 -340 7 -750 11 l-745 7 -42 -289 c-23 -158 -42 -294
-42 -300 0 -10 74 -13 335 -13 224 0 335 -3 335 -10 0 -17 -50 -110 -91 -171
-61 -91 -149 -150 -284 -193 -366 -115 -685 -13 -873 281 -149 233 -150 643
-1 921 125 235 332 397 571 448 96 20 282 20 377 0 165 -35 331 -151 436 -306
27 -39 53 -67 59 -63 6 3 147 101 313 216 l302 211 -31 44 c-102 149 -258 304
-400 400 -158 106 -375 193 -573 228 -137 25 -459 25 -600 1 -241 -42 -487
-138 -685 -267 -106 -70 -302 -259 -387 -373 -245 -334 -363 -751 -333 -1178
26 -364 143 -633 374 -864 185 -184 401 -306 653 -369 185 -46 236 -51 503
-51 225 0 268 3 367 23 584 118 985 513 1143 1126 16 61 29 105 29 97 1 -11
-170 -1147 -184 -1223 l-4 -28 394 0 c249 0 395 4 395 10 0 13 149 1017 156
1052 l6 28 293 0 c348 0 516 12 634 46 217 63 401 211 526 422 50 84 109 260
129 377 l13 80 13 -55 c33 -143 119 -269 260 -383 84 -68 292 -198 340 -212
13 -4 36 -15 50 -25 14 -9 63 -39 109 -66 103 -60 202 -150 232 -210 46 -97 6
-221 -94 -290 -59 -41 -101 -54 -193 -61 -202 -15 -419 87 -662 312 -41 38
-77 64 -81 59 -5 -5 -88 -126 -186 -269 -98 -143 -187 -272 -197 -288 l-20
-28 109 -107 c214 -213 461 -341 744 -382 124 -18 404 -8 534 20 247 53 446
154 601 306 69 69 99 107 148 188 20 33 36 55 36 49 0 -5 -18 -128 -40 -272
-22 -144 -40 -270 -40 -281 0 -20 8 -20 390 -20 l389 0 6 33 c6 34 165 1047
165 1051 0 2 150 6 333 9 340 6 419 13 567 49 283 68 482 251 617 568 l23 55
-7 -75 c-5 -41 -8 -169 -8 -285 1 -235 11 -304 72 -479 119 -342 325 -582 642
-745 232 -119 414 -161 719 -169 232 -5 341 5 518 48 296 73 529 202 756 419
205 196 369 454 439 689 7 23 14 40 16 38 3 -3 -161 -1127 -172 -1174 l-5 -22
394 0 394 0 6 27 c3 16 44 282 91 592 47 311 87 566 89 568 4 4 71 -132 391
-794 l190 -393 452 0 452 0 -30 52 c-197 334 -689 1177 -689 1181 0 3 19 8 43
12 193 32 408 150 542 297 169 187 237 381 238 673 0 517 -257 807 -795 896
-49 8 -271 13 -685 16 l-611 4 -6 -28 c-3 -15 -51 -334 -106 -708 -55 -374
-104 -693 -108 -708 -4 -18 -8 18 -10 95 -12 536 -268 951 -732 1183 -201 101
-426 153 -700 162 -170 6 -311 -5 -446 -33 -393 -81 -740 -283 -966 -563 -129
-159 -247 -367 -298 -524 -12 -38 -23 -67 -25 -65 -1 2 1 28 6 58 21 146 3
372 -42 515 -70 228 -219 395 -452 505 -191 91 -281 101 -994 107 l-582 5 -6
-33z m6513 -594 c170 -41 259 -141 277 -315 8 -82 -8 -187 -41 -256 -47 -99
-158 -187 -279 -221 -63 -18 -425 -31 -425 -16 0 6 27 191 60 412 33 221 60
407 60 413 0 16 266 3 348 -17z m-9750 -55 c190 -24 289 -83 333 -199 30 -79
24 -233 -11 -306 -70 -145 -183 -188 -532 -202 l-168 -6 0 27 c0 25 84 608 96
669 l6 27 97 0 c53 0 133 -5 179 -10z m4309 -13 c184 -52 261 -158 251 -341
-12 -210 -124 -300 -418 -336 -123 -15 -320 -13 -320 3 0 10 88 568 105 666
l6 34 162 -6 c97 -3 183 -11 214 -20z m2797 -53 c160 -32 323 -146 425 -299
92 -139 127 -276 118 -470 -7 -134 -22 -206 -68 -326 -78 -203 -272 -414 -454
-494 -119 -53 -200 -69 -345 -69 -229 0 -355 49 -500 194 -65 64 -96 105 -128
167 -69 133 -85 210 -86 398 0 183 18 281 78 409 176 381 549 572 960 490z
m-8337 -1046 c-3 -7 -5 -2 -5 12 0 14 2 19 5 13 2 -7 2 -19 0 -25z m-10 -65
c-3 -10 -5 -4 -5 12 0 17 2 24 5 18 2 -7 2 -21 0 -30z"/>
<path d="M18140 3143 c-298 -28 -515 -130 -697 -327 -143 -156 -220 -331 -244
-561 -17 -162 2 -287 63 -415 71 -148 251 -305 499 -435 183 -96 204 -108 276
-157 83 -58 133 -109 164 -170 31 -60 23 -154 -18 -212 -111 -159 -379 -181
-619 -51 -100 55 -214 139 -312 230 -40 37 -74 66 -76 64 -2 -2 -92 -134 -200
-292 -137 -201 -195 -294 -191 -306 9 -29 192 -201 275 -260 141 -100 303
-170 485 -212 84 -19 129 -22 275 -22 325 0 572 67 787 215 89 60 215 181 261
249 204 301 227 760 53 1020 -106 157 -288 297 -571 439 -166 83 -300 183
-336 252 -34 66 -4 161 74 228 78 67 192 87 316 55 79 -21 219 -96 327 -177
50 -38 94 -68 97 -68 4 0 82 131 174 290 l166 290 -76 56 c-99 72 -221 144
-308 182 -165 71 -452 114 -644 95z"/>
</g>
</svg>
