<?xml version="1.0" standalone="no"?>
<!DOCTYPE svg PUBLIC "-//W3C//DTD SVG 20010904//EN"
 "http://www.w3.org/TR/2001/REC-SVG-20010904/DTD/svg10.dtd">
<svg version="1.0" xmlns="http://www.w3.org/2000/svg"
 width="1024.000000pt" height="1024.000000pt" viewBox="0 0 1024.000000 1024.000000"
 preserveAspectRatio="xMidYMid meet">

<g transform="translate(0.000000,1024.000000) scale(0.100000,-0.100000)"
fill="#000000" stroke="none">
<path d="M1980 6149 c-219 -23 -372 -148 -425 -350 -19 -71 -19 -266 0 -347
43 -182 162 -297 344 -333 85 -16 262 -6 376 23 l90 23 3 263 2 262 -200 0
-200 0 0 -85 0 -85 95 0 95 0 0 -110 c0 -130 6 -124 -121 -125 -106 0 -168 25
-216 89 -45 58 -63 116 -70 216 -9 141 35 265 120 331 92 73 256 79 408 15 13
-6 23 9 48 71 33 83 37 98 21 88 -5 -3 -10 -2 -10 2 0 11 -103 41 -165 48
-101 11 -121 12 -195 4z"/>
<path d="M3737 6149 c-156 -23 -254 -117 -265 -255 -11 -144 62 -239 259 -338
165 -82 193 -114 173 -194 -22 -87 -159 -103 -342 -40 l-103 36 3 -97 3 -96
68 -23 c137 -45 323 -40 427 13 160 81 207 278 99 415 -45 57 -112 106 -130
94 -7 -4 -10 -3 -6 3 4 6 -25 26 -67 46 -116 56 -156 84 -172 123 -20 48 -4
98 40 125 26 17 43 20 111 16 44 -3 107 -15 139 -26 33 -12 62 -21 67 -21 6 0
21 34 66 146 4 12 -84 47 -157 63 -76 15 -152 19 -213 10z"/>
<path d="M2627 6134 c-4 -4 -7 -234 -7 -511 l0 -503 105 0 105 0 0 184 0 183
113 6 c143 6 216 30 282 93 71 68 90 118 90 239 0 92 -2 104 -29 153 -38 68
-79 104 -153 133 -53 21 -77 23 -278 27 -121 2 -223 0 -228 -4z m398 -177 c73
-22 105 -126 66 -213 -25 -56 -72 -77 -178 -82 l-83 -4 0 156 0 156 78 -1 c42
0 95 -6 117 -12z"/>
</g>
</svg>
